<?xml version="1.0" encoding="UTF-8"?>
<svg xmlns="http://www.w3.org/2000/svg" width="1352" height="1616" viewBox="0 0 1352 1616">
<title>Manual triple dense originium equipment layout v1</title>
<defs>
<marker id="arrow-belt" markerWidth="8" markerHeight="8" refX="6" refY="3" orient="auto"><path d="M0,0 L0,6 L7,3 z" fill="#f7b955"/></marker>
<marker id="arrow-pipe" markerWidth="8" markerHeight="8" refX="6" refY="3" orient="auto"><path d="M0,0 L0,6 L7,3 z" fill="#38bdf8"/></marker>
</defs>
<rect width="100%" height="100%" fill="#10151d"/>
<text x="52" y="30" fill="#f2f5f8" font-family="sans-serif" font-size="18" font-weight="700">Manual triple dense originium equipment layout v1</text>
<g font-family="sans-serif" font-size="12" fill="#cbd5e1">
<rect x="52" y="39" width="13" height="13" rx="2" fill="#475569"/><text x="71" y="50">Production</text>
<line x1="162" y1="46" x2="192" y2="46" stroke="#f7b955" stroke-width="5"/><text x="200" y="50">Belt</text>
<line x1="262" y1="46" x2="292" y2="46" stroke="#38bdf8" stroke-width="5"/><text x="300" y="50">Pipe</text>
</g>
<g stroke="#263241" stroke-width="1">
<line x1="52" y1="108" x2="52" y2="1564"/>
<line x1="104" y1="108" x2="104" y2="1564"/>
<line x1="156" y1="108" x2="156" y2="1564"/>
<line x1="208" y1="108" x2="208" y2="1564"/>
<line x1="260" y1="108" x2="260" y2="1564"/>
<line x1="312" y1="108" x2="312" y2="1564"/>
<line x1="364" y1="108" x2="364" y2="1564"/>
<line x1="416" y1="108" x2="416" y2="1564"/>
<line x1="468" y1="108" x2="468" y2="1564"/>
<line x1="520" y1="108" x2="520" y2="1564"/>
<line x1="572" y1="108" x2="572" y2="1564"/>
<line x1="624" y1="108" x2="624" y2="1564"/>
<line x1="676" y1="108" x2="676" y2="1564"/>
<line x1="728" y1="108" x2="728" y2="1564"/>
<line x1="780" y1="108" x2="780" y2="1564"/>
<line x1="832" y1="108" x2="832" y2="1564"/>
<line x1="884" y1="108" x2="884" y2="1564"/>
<line x1="936" y1="108" x2="936" y2="1564"/>
<line x1="988" y1="108" x2="988" y2="1564"/>
<line x1="1040" y1="108" x2="1040" y2="1564"/>
<line x1="1092" y1="108" x2="1092" y2="1564"/>
<line x1="1144" y1="108" x2="1144" y2="1564"/>
<line x1="1196" y1="108" x2="1196" y2="1564"/>
<line x1="1248" y1="108" x2="1248" y2="1564"/>
<line x1="1300" y1="108" x2="1300" y2="1564"/>
<line x1="52" y1="108" x2="1300" y2="108"/>
<line x1="52" y1="160" x2="1300" y2="160"/>
<line x1="52" y1="212" x2="1300" y2="212"/>
<line x1="52" y1="264" x2="1300" y2="264"/>
<line x1="52" y1="316" x2="1300" y2="316"/>
<line x1="52" y1="368" x2="1300" y2="368"/>
<line x1="52" y1="420" x2="1300" y2="420"/>
<line x1="52" y1="472" x2="1300" y2="472"/>
<line x1="52" y1="524" x2="1300" y2="524"/>
<line x1="52" y1="576" x2="1300" y2="576"/>
<line x1="52" y1="628" x2="1300" y2="628"/>
<line x1="52" y1="680" x2="1300" y2="680"/>
<line x1="52" y1="732" x2="1300" y2="732"/>
<line x1="52" y1="784" x2="1300" y2="784"/>
<line x1="52" y1="836" x2="1300" y2="836"/>
<line x1="52" y1="888" x2="1300" y2="888"/>
<line x1="52" y1="940" x2="1300" y2="940"/>
<line x1="52" y1="992" x2="1300" y2="992"/>
<line x1="52" y1="1044" x2="1300" y2="1044"/>
<line x1="52" y1="1096" x2="1300" y2="1096"/>
<line x1="52" y1="1148" x2="1300" y2="1148"/>
<line x1="52" y1="1200" x2="1300" y2="1200"/>
<line x1="52" y1="1252" x2="1300" y2="1252"/>
<line x1="52" y1="1304" x2="1300" y2="1304"/>
<line x1="52" y1="1356" x2="1300" y2="1356"/>
<line x1="52" y1="1408" x2="1300" y2="1408"/>
<line x1="52" y1="1460" x2="1300" y2="1460"/>
<line x1="52" y1="1512" x2="1300" y2="1512"/>
<line x1="52" y1="1564" x2="1300" y2="1564"/>
</g>
<g>
<rect x="54" y="110" width="204" height="204" rx="8" fill="#334155" stroke="#94a3b8" stroke-width="2"/>
<text x="156" y="208" text-anchor="middle" fill="#f8fafc" font-family="sans-serif" font-size="13" font-weight="700">item_port_log_hongs_bus_sou…</text>
<text x="156" y="226" text-anchor="middle" fill="#94a3b8" font-family="monospace" font-size="11">warehouse-bus-source</text>
</g>
<g>
<rect x="54" y="318" width="204" height="412" rx="8" fill="#334155" stroke="#94a3b8" stroke-width="2"/>
<text x="156" y="520" text-anchor="middle" fill="#f8fafc" font-family="sans-serif" font-size="13" font-weight="700">item_port_log_hongs_bus</text>
<text x="156" y="538" text-anchor="middle" fill="#94a3b8" font-family="monospace" font-size="11">warehouse-bus-1</text>
</g>
<g>
<rect x="54" y="734" width="204" height="412" rx="8" fill="#334155" stroke="#94a3b8" stroke-width="2"/>
<text x="156" y="936" text-anchor="middle" fill="#f8fafc" font-family="sans-serif" font-size="13" font-weight="700">item_port_log_hongs_bus</text>
<text x="156" y="954" text-anchor="middle" fill="#94a3b8" font-family="monospace" font-size="11">warehouse-bus-2</text>
</g>
<g>
<rect x="54" y="1150" width="204" height="412" rx="8" fill="#334155" stroke="#94a3b8" stroke-width="2"/>
<text x="156" y="1352" text-anchor="middle" fill="#f8fafc" font-family="sans-serif" font-size="13" font-weight="700">item_port_log_hongs_bus</text>
<text x="156" y="1370" text-anchor="middle" fill="#94a3b8" font-family="monospace" font-size="11">warehouse-bus-3</text>
</g>
<g>
<rect x="262" y="162" width="48" height="152" rx="8" fill="#334155" stroke="#94a3b8" stroke-width="2"/>
<text x="286" y="234" text-anchor="middle" fill="#f8fafc" font-family="sans-serif" font-size="13" font-weight="700">item_port_unl…</text>
<text x="286" y="252" text-anchor="middle" fill="#94a3b8" font-family="monospace" font-size="11">warehouse-unloader-1</text>
<circle cx="286" cy="238" r="4" fill="#f7b955" stroke="#f7b955" stroke-width="2"/>
</g>
<g>
<rect x="262" y="318" width="48" height="152" rx="8" fill="#334155" stroke="#94a3b8" stroke-width="2"/>
<text x="286" y="390" text-anchor="middle" fill="#f8fafc" font-family="sans-serif" font-size="13" font-weight="700">item_port_unl…</text>
<text x="286" y="408" text-anchor="middle" fill="#94a3b8" font-family="monospace" font-size="11">warehouse-unloader-2</text>
<circle cx="286" cy="394" r="4" fill="#f7b955" stroke="#f7b955" stroke-width="2"/>
</g>
<g>
<rect x="262" y="474" width="48" height="152" rx="8" fill="#334155" stroke="#94a3b8" stroke-width="2"/>
<text x="286" y="546" text-anchor="middle" fill="#f8fafc" font-family="sans-serif" font-size="13" font-weight="700">item_port_unl…</text>
<text x="286" y="564" text-anchor="middle" fill="#94a3b8" font-family="monospace" font-size="11">warehouse-unloader-3</text>
<circle cx="286" cy="550" r="4" fill="#f7b955" stroke="#f7b955" stroke-width="2"/>
</g>
<g>
<rect x="262" y="630" width="48" height="152" rx="8" fill="#334155" stroke="#94a3b8" stroke-width="2"/>
<text x="286" y="702" text-anchor="middle" fill="#f8fafc" font-family="sans-serif" font-size="13" font-weight="700">item_port_unl…</text>
<text x="286" y="720" text-anchor="middle" fill="#94a3b8" font-family="monospace" font-size="11">warehouse-unloader-4</text>
<circle cx="286" cy="706" r="4" fill="#f7b955" stroke="#f7b955" stroke-width="2"/>
</g>
<g>
<rect x="262" y="786" width="48" height="152" rx="8" fill="#334155" stroke="#94a3b8" stroke-width="2"/>
<text x="286" y="858" text-anchor="middle" fill="#f8fafc" font-family="sans-serif" font-size="13" font-weight="700">item_port_unl…</text>
<text x="286" y="876" text-anchor="middle" fill="#94a3b8" font-family="monospace" font-size="11">warehouse-unloader-5</text>
<circle cx="286" cy="862" r="4" fill="#f7b955" stroke="#f7b955" stroke-width="2"/>
</g>
<g>
<rect x="262" y="942" width="48" height="152" rx="8" fill="#334155" stroke="#94a3b8" stroke-width="2"/>
<text x="286" y="1014" text-anchor="middle" fill="#f8fafc" font-family="sans-serif" font-size="13" font-weight="700">item_port_unl…</text>
<text x="286" y="1032" text-anchor="middle" fill="#94a3b8" font-family="monospace" font-size="11">warehouse-unloader-6</text>
<circle cx="286" cy="1018" r="4" fill="#f7b955" stroke="#f7b955" stroke-width="2"/>
</g>
<g>
<rect x="366" y="110" width="152" height="152" rx="8" fill="#334155" stroke="#94a3b8" stroke-width="2"/>
<text x="442" y="182" text-anchor="middle" fill="#f8fafc" font-family="sans-serif" font-size="13" font-weight="700">crusher_originium_po…</text>
<text x="442" y="200" text-anchor="middle" fill="#94a3b8" font-family="monospace" font-size="11">opt-2-1</text>
<circle cx="390" cy="134" r="4" fill="#10151d" stroke="#f7b955" stroke-width="2"/>
<circle cx="390" cy="186" r="4" fill="#10151d" stroke="#f7b955" stroke-width="2"/>
<circle cx="390" cy="238" r="4" fill="#10151d" stroke="#f7b955" stroke-width="2"/>
<circle cx="494" cy="134" r="4" fill="#f7b955" stroke="#f7b955" stroke-width="2"/>
<circle cx="494" cy="186" r="4" fill="#f7b955" stroke="#f7b955" stroke-width="2"/>
<circle cx="494" cy="238" r="4" fill="#f7b955" stroke="#f7b955" stroke-width="2"/>
</g>
<g>
<rect x="366" y="266" width="152" height="152" rx="8" fill="#334155" stroke="#94a3b8" stroke-width="2"/>
<text x="442" y="338" text-anchor="middle" fill="#f8fafc" font-family="sans-serif" font-size="13" font-weight="700">crusher_originium_po…</text>
<text x="442" y="356" text-anchor="middle" fill="#94a3b8" font-family="monospace" font-size="11">opt-2-2</text>
<circle cx="390" cy="290" r="4" fill="#10151d" stroke="#f7b955" stroke-width="2"/>
<circle cx="390" cy="342" r="4" fill="#10151d" stroke="#f7b955" stroke-width="2"/>
<circle cx="390" cy="394" r="4" fill="#10151d" stroke="#f7b955" stroke-width="2"/>
<circle cx="494" cy="290" r="4" fill="#f7b955" stroke="#f7b955" stroke-width="2"/>
<circle cx="494" cy="342" r="4" fill="#f7b955" stroke="#f7b955" stroke-width="2"/>
<circle cx="494" cy="394" r="4" fill="#f7b955" stroke="#f7b955" stroke-width="2"/>
</g>
<g>
<rect x="366" y="422" width="152" height="152" rx="8" fill="#334155" stroke="#94a3b8" stroke-width="2"/>
<text x="442" y="494" text-anchor="middle" fill="#f8fafc" font-family="sans-serif" font-size="13" font-weight="700">crusher_originium_po…</text>
<text x="442" y="512" text-anchor="middle" fill="#94a3b8" font-family="monospace" font-size="11">opt-2-3</text>
<circle cx="390" cy="446" r="4" fill="#10151d" stroke="#f7b955" stroke-width="2"/>
<circle cx="390" cy="498" r="4" fill="#10151d" stroke="#f7b955" stroke-width="2"/>
<circle cx="390" cy="550" r="4" fill="#10151d" stroke="#f7b955" stroke-width="2"/>
<circle cx="494" cy="446" r="4" fill="#f7b955" stroke="#f7b955" stroke-width="2"/>
<circle cx="494" cy="498" r="4" fill="#f7b955" stroke="#f7b955" stroke-width="2"/>
<circle cx="494" cy="550" r="4" fill="#f7b955" stroke="#f7b955" stroke-width="2"/>
</g>
<g>
<rect x="366" y="578" width="152" height="152" rx="8" fill="#334155" stroke="#94a3b8" stroke-width="2"/>
<text x="442" y="650" text-anchor="middle" fill="#f8fafc" font-family="sans-serif" font-size="13" font-weight="700">crusher_originium_po…</text>
<text x="442" y="668" text-anchor="middle" fill="#94a3b8" font-family="monospace" font-size="11">opt-2-4</text>
<circle cx="390" cy="602" r="4" fill="#10151d" stroke="#f7b955" stroke-width="2"/>
<circle cx="390" cy="654" r="4" fill="#10151d" stroke="#f7b955" stroke-width="2"/>
<circle cx="390" cy="706" r="4" fill="#10151d" stroke="#f7b955" stroke-width="2"/>
<circle cx="494" cy="602" r="4" fill="#f7b955" stroke="#f7b955" stroke-width="2"/>
<circle cx="494" cy="654" r="4" fill="#f7b955" stroke="#f7b955" stroke-width="2"/>
<circle cx="494" cy="706" r="4" fill="#f7b955" stroke="#f7b955" stroke-width="2"/>
</g>
<g>
<rect x="366" y="734" width="152" height="152" rx="8" fill="#334155" stroke="#94a3b8" stroke-width="2"/>
<text x="442" y="806" text-anchor="middle" fill="#f8fafc" font-family="sans-serif" font-size="13" font-weight="700">crusher_originium_po…</text>
<text x="442" y="824" text-anchor="middle" fill="#94a3b8" font-family="monospace" font-size="11">opt-2-5</text>
<circle cx="390" cy="758" r="4" fill="#10151d" stroke="#f7b955" stroke-width="2"/>
<circle cx="390" cy="810" r="4" fill="#10151d" stroke="#f7b955" stroke-width="2"/>
<circle cx="390" cy="862" r="4" fill="#10151d" stroke="#f7b955" stroke-width="2"/>
<circle cx="494" cy="758" r="4" fill="#f7b955" stroke="#f7b955" stroke-width="2"/>
<circle cx="494" cy="810" r="4" fill="#f7b955" stroke="#f7b955" stroke-width="2"/>
<circle cx="494" cy="862" r="4" fill="#f7b955" stroke="#f7b955" stroke-width="2"/>
</g>
<g>
<rect x="366" y="890" width="152" height="152" rx="8" fill="#334155" stroke="#94a3b8" stroke-width="2"/>
<text x="442" y="962" text-anchor="middle" fill="#f8fafc" font-family="sans-serif" font-size="13" font-weight="700">crusher_originium_po…</text>
<text x="442" y="980" text-anchor="middle" fill="#94a3b8" font-family="monospace" font-size="11">opt-2-6</text>
<circle cx="390" cy="914" r="4" fill="#10151d" stroke="#f7b955" stroke-width="2"/>
<circle cx="390" cy="966" r="4" fill="#10151d" stroke="#f7b955" stroke-width="2"/>
<circle cx="390" cy="1018" r="4" fill="#10151d" stroke="#f7b955" stroke-width="2"/>
<circle cx="494" cy="914" r="4" fill="#f7b955" stroke="#f7b955" stroke-width="2"/>
<circle cx="494" cy="966" r="4" fill="#f7b955" stroke="#f7b955" stroke-width="2"/>
<circle cx="494" cy="1018" r="4" fill="#f7b955" stroke="#f7b955" stroke-width="2"/>
</g>
<g>
<rect x="574" y="110" width="204" height="308" rx="8" fill="#334155" stroke="#94a3b8" stroke-width="2"/>
<text x="676" y="260" text-anchor="middle" fill="#f8fafc" font-family="sans-serif" font-size="13" font-weight="700">thickener_originium_enr_pow…</text>
<text x="676" y="278" text-anchor="middle" fill="#94a3b8" font-family="monospace" font-size="11">opt-6-1</text>
<circle cx="598" cy="134" r="4" fill="#10151d" stroke="#f7b955" stroke-width="2"/>
<circle cx="598" cy="186" r="4" fill="#10151d" stroke="#f7b955" stroke-width="2"/>
<circle cx="598" cy="238" r="4" fill="#10151d" stroke="#f7b955" stroke-width="2"/>
<circle cx="598" cy="290" r="4" fill="#10151d" stroke="#f7b955" stroke-width="2"/>
<circle cx="598" cy="342" r="4" fill="#10151d" stroke="#f7b955" stroke-width="2"/>
<circle cx="598" cy="394" r="4" fill="#10151d" stroke="#f7b955" stroke-width="2"/>
<circle cx="754" cy="134" r="4" fill="#f7b955" stroke="#f7b955" stroke-width="2"/>
<circle cx="754" cy="186" r="4" fill="#f7b955" stroke="#f7b955" stroke-width="2"/>
<circle cx="754" cy="238" r="4" fill="#f7b955" stroke="#f7b955" stroke-width="2"/>
<circle cx="754" cy="290" r="4" fill="#f7b955" stroke="#f7b955" stroke-width="2"/>
<circle cx="754" cy="342" r="4" fill="#f7b955" stroke="#f7b955" stroke-width="2"/>
<circle cx="754" cy="394" r="4" fill="#f7b955" stroke="#f7b955" stroke-width="2"/>
</g>
<g>
<rect x="574" y="422" width="204" height="308" rx="8" fill="#334155" stroke="#94a3b8" stroke-width="2"/>
<text x="676" y="572" text-anchor="middle" fill="#f8fafc" font-family="sans-serif" font-size="13" font-weight="700">thickener_originium_enr_pow…</text>
<text x="676" y="590" text-anchor="middle" fill="#94a3b8" font-family="monospace" font-size="11">opt-6-2</text>
<circle cx="598" cy="446" r="4" fill="#10151d" stroke="#f7b955" stroke-width="2"/>
<circle cx="598" cy="498" r="4" fill="#10151d" stroke="#f7b955" stroke-width="2"/>
<circle cx="598" cy="550" r="4" fill="#10151d" stroke="#f7b955" stroke-width="2"/>
<circle cx="598" cy="602" r="4" fill="#10151d" stroke="#f7b955" stroke-width="2"/>
<circle cx="598" cy="654" r="4" fill="#10151d" stroke="#f7b955" stroke-width="2"/>
<circle cx="598" cy="706" r="4" fill="#10151d" stroke="#f7b955" stroke-width="2"/>
<circle cx="754" cy="446" r="4" fill="#f7b955" stroke="#f7b955" stroke-width="2"/>
<circle cx="754" cy="498" r="4" fill="#f7b955" stroke="#f7b955" stroke-width="2"/>
<circle cx="754" cy="550" r="4" fill="#f7b955" stroke="#f7b955" stroke-width="2"/>
<circle cx="754" cy="602" r="4" fill="#f7b955" stroke="#f7b955" stroke-width="2"/>
<circle cx="754" cy="654" r="4" fill="#f7b955" stroke="#f7b955" stroke-width="2"/>
<circle cx="754" cy="706" r="4" fill="#f7b955" stroke="#f7b955" stroke-width="2"/>
</g>
<g>
<rect x="574" y="734" width="204" height="308" rx="8" fill="#334155" stroke="#94a3b8" stroke-width="2"/>
<text x="676" y="884" text-anchor="middle" fill="#f8fafc" font-family="sans-serif" font-size="13" font-weight="700">thickener_originium_enr_pow…</text>
<text x="676" y="902" text-anchor="middle" fill="#94a3b8" font-family="monospace" font-size="11">opt-6-3</text>
<circle cx="598" cy="758" r="4" fill="#10151d" stroke="#f7b955" stroke-width="2"/>
<circle cx="598" cy="810" r="4" fill="#10151d" stroke="#f7b955" stroke-width="2"/>
<circle cx="598" cy="862" r="4" fill="#10151d" stroke="#f7b955" stroke-width="2"/>
<circle cx="598" cy="914" r="4" fill="#10151d" stroke="#f7b955" stroke-width="2"/>
<circle cx="598" cy="966" r="4" fill="#10151d" stroke="#f7b955" stroke-width="2"/>
<circle cx="598" cy="1018" r="4" fill="#10151d" stroke="#f7b955" stroke-width="2"/>
<circle cx="754" cy="758" r="4" fill="#f7b955" stroke="#f7b955" stroke-width="2"/>
<circle cx="754" cy="810" r="4" fill="#f7b955" stroke="#f7b955" stroke-width="2"/>
<circle cx="754" cy="862" r="4" fill="#f7b955" stroke="#f7b955" stroke-width="2"/>
<circle cx="754" cy="914" r="4" fill="#f7b955" stroke="#f7b955" stroke-width="2"/>
<circle cx="754" cy="966" r="4" fill="#f7b955" stroke="#f7b955" stroke-width="2"/>
<circle cx="754" cy="1018" r="4" fill="#f7b955" stroke="#f7b955" stroke-width="2"/>
</g>
<g>
<rect x="834" y="474" width="152" height="152" rx="8" fill="#334155" stroke="#94a3b8" stroke-width="2"/>
<text x="910" y="546" text-anchor="middle" fill="#f8fafc" font-family="sans-serif" font-size="13" font-weight="700">item_port_storager_1</text>
<text x="910" y="564" text-anchor="middle" fill="#94a3b8" font-family="monospace" font-size="11">warehouse-storage-1</text>
<circle cx="858" cy="498" r="4" fill="#10151d" stroke="#f7b955" stroke-width="2"/>
<circle cx="858" cy="550" r="4" fill="#10151d" stroke="#f7b955" stroke-width="2"/>
<circle cx="858" cy="602" r="4" fill="#10151d" stroke="#f7b955" stroke-width="2"/>
<circle cx="962" cy="498" r="4" fill="#f7b955" stroke="#f7b955" stroke-width="2"/>
<circle cx="962" cy="550" r="4" fill="#f7b955" stroke="#f7b955" stroke-width="2"/>
<circle cx="962" cy="602" r="4" fill="#f7b955" stroke="#f7b955" stroke-width="2"/>
</g>
<g>
<rect x="834" y="734" width="152" height="152" rx="8" fill="#334155" stroke="#94a3b8" stroke-width="2"/>
<text x="910" y="806" text-anchor="middle" fill="#f8fafc" font-family="sans-serif" font-size="13" font-weight="700">crusher_moss_powder_…</text>
<text x="910" y="824" text-anchor="middle" fill="#94a3b8" font-family="monospace" font-size="11">opt-1-1</text>
<circle cx="962" cy="862" r="4" fill="#10151d" stroke="#f7b955" stroke-width="2"/>
<circle cx="962" cy="810" r="4" fill="#10151d" stroke="#f7b955" stroke-width="2"/>
<circle cx="962" cy="758" r="4" fill="#10151d" stroke="#f7b955" stroke-width="2"/>
<circle cx="858" cy="862" r="4" fill="#f7b955" stroke="#f7b955" stroke-width="2"/>
<circle cx="858" cy="810" r="4" fill="#f7b955" stroke="#f7b955" stroke-width="2"/>
<circle cx="858" cy="758" r="4" fill="#f7b955" stroke="#f7b955" stroke-width="2"/>
</g>
<g>
<rect x="1042" y="110" width="256" height="256" rx="8" fill="#334155" stroke="#94a3b8" stroke-width="2"/>
<text x="1170" y="234" text-anchor="middle" fill="#f8fafc" font-family="sans-serif" font-size="13" font-weight="700">planter_moss_from_moss_seed_basic</text>
<text x="1170" y="252" text-anchor="middle" fill="#94a3b8" font-family="monospace" font-size="11">cycle-moss-planter-1</text>
<circle cx="1066" cy="134" r="4" fill="#10151d" stroke="#f7b955" stroke-width="2"/>
<circle cx="1066" cy="186" r="4" fill="#10151d" stroke="#f7b955" stroke-width="2"/>
<circle cx="1066" cy="238" r="4" fill="#10151d" stroke="#f7b955" stroke-width="2"/>
<circle cx="1066" cy="290" r="4" fill="#10151d" stroke="#f7b955" stroke-width="2"/>
<circle cx="1066" cy="342" r="4" fill="#10151d" stroke="#f7b955" stroke-width="2"/>
<circle cx="1274" cy="134" r="4" fill="#f7b955" stroke="#f7b955" stroke-width="2"/>
<circle cx="1274" cy="186" r="4" fill="#f7b955" stroke="#f7b955" stroke-width="2"/>
<circle cx="1274" cy="238" r="4" fill="#f7b955" stroke="#f7b955" stroke-width="2"/>
<circle cx="1274" cy="290" r="4" fill="#f7b955" stroke="#f7b955" stroke-width="2"/>
<circle cx="1274" cy="342" r="4" fill="#f7b955" stroke="#f7b955" stroke-width="2"/>
</g>
<g>
<rect x="1042" y="422" width="256" height="256" rx="8" fill="#334155" stroke="#94a3b8" stroke-width="2"/>
<text x="1170" y="546" text-anchor="middle" fill="#f8fafc" font-family="sans-serif" font-size="13" font-weight="700">seedcol_moss_seed_from_moss_basic</text>
<text x="1170" y="564" text-anchor="middle" fill="#94a3b8" font-family="monospace" font-size="11">cycle-moss-seed-collector-1</text>
<circle cx="1274" cy="654" r="4" fill="#10151d" stroke="#f7b955" stroke-width="2"/>
<circle cx="1274" cy="602" r="4" fill="#10151d" stroke="#f7b955" stroke-width="2"/>
<circle cx="1274" cy="550" r="4" fill="#10151d" stroke="#f7b955" stroke-width="2"/>
<circle cx="1274" cy="498" r="4" fill="#10151d" stroke="#f7b955" stroke-width="2"/>
<circle cx="1274" cy="446" r="4" fill="#10151d" stroke="#f7b955" stroke-width="2"/>
<circle cx="1066" cy="654" r="4" fill="#f7b955" stroke="#f7b955" stroke-width="2"/>
<circle cx="1066" cy="602" r="4" fill="#f7b955" stroke="#f7b955" stroke-width="2"/>
<circle cx="1066" cy="550" r="4" fill="#f7b955" stroke="#f7b955" stroke-width="2"/>
<circle cx="1066" cy="498" r="4" fill="#f7b955" stroke="#f7b955" stroke-width="2"/>
<circle cx="1066" cy="446" r="4" fill="#f7b955" stroke="#f7b955" stroke-width="2"/>
</g>
<g>
<rect x="1042" y="734" width="256" height="256" rx="8" fill="#334155" stroke="#94a3b8" stroke-width="2"/>
<text x="1170" y="858" text-anchor="middle" fill="#f8fafc" font-family="sans-serif" font-size="13" font-weight="700">planter_moss_from_moss_seed_basic</text>
<text x="1170" y="876" text-anchor="middle" fill="#94a3b8" font-family="monospace" font-size="11">cycle-moss-planter-2</text>
<circle cx="1274" cy="966" r="4" fill="#10151d" stroke="#f7b955" stroke-width="2"/>
<circle cx="1274" cy="914" r="4" fill="#10151d" stroke="#f7b955" stroke-width="2"/>
<circle cx="1274" cy="862" r="4" fill="#10151d" stroke="#f7b955" stroke-width="2"/>
<circle cx="1274" cy="810" r="4" fill="#10151d" stroke="#f7b955" stroke-width="2"/>
<circle cx="1274" cy="758" r="4" fill="#10151d" stroke="#f7b955" stroke-width="2"/>
<circle cx="1066" cy="966" r="4" fill="#f7b955" stroke="#f7b955" stroke-width="2"/>
<circle cx="1066" cy="914" r="4" fill="#f7b955" stroke="#f7b955" stroke-width="2"/>
<circle cx="1066" cy="862" r="4" fill="#f7b955" stroke="#f7b955" stroke-width="2"/>
<circle cx="1066" cy="810" r="4" fill="#f7b955" stroke="#f7b955" stroke-width="2"/>
<circle cx="1066" cy="758" r="4" fill="#f7b955" stroke="#f7b955" stroke-width="2"/>
</g>
</svg>
